HIERARCHY
ROOT Pelvis
{
	OFFSET 0.000000 0.000000 0.000000
	CHANNELS 6 Xposition Yposition Zposition Xrotation Yrotation Zrotation
	JOINT LeftUpLeg_virtual
	{
		OFFSET 0.000000 0.000000 0.000000
		CHANNELS 3 Xrotation Yrotation Zrotation
		JOINT LeftUpLeg
		{
			OFFSET 8.479700 -4.795502 -0.379100
			CHANNELS 3 Xrotation Yrotation Zrotation
			JOINT LeftLeg
			{
				OFFSET 0.024144 -32.555107 0.112900
				CHANNELS 3 Xrotation Yrotation Zrotation
				JOINT LeftFoot
				{
					OFFSET -0.024144 -32.638630 -3.012600
					CHANNELS 3 Xrotation Yrotation Zrotation
					JOINT LeftToeBase
					{
						OFFSET 0.970200 -13.225400 11.864200
						CHANNELS 3 Xrotation Yrotation Zrotation
						End Site
						{
							OFFSET 0 0 0
						}
					}
				}
			}
		}
	}
	JOINT RightUpLeg_virtual
	{
		OFFSET 0.000000 0.000000 0.000000
		CHANNELS 3 Xrotation Yrotation Zrotation
		JOINT RightUpLeg
		{
			OFFSET -8.479700 -4.795502 -0.379100
			CHANNELS 3 Xrotation Yrotation Zrotation
			JOINT RightLeg
			{
				OFFSET -0.023144 -32.555092 0.112900
				CHANNELS 3 Xrotation Yrotation Zrotation
				JOINT RightFoot
				{
					OFFSET 0.023144 -32.638641 -3.012700
					CHANNELS 3 Xrotation Yrotation Zrotation
					JOINT RightToeBase
					{
						OFFSET -0.970200 -13.225400 11.864200
						CHANNELS 3 Xrotation Yrotation Zrotation
						End Site
						{
							OFFSET 0 0 0
						}
					}
				}
			}
		}
	}
	JOINT Hips_virtual
	{
		OFFSET 0.000000 0.000000 0.000000
		CHANNELS 3 Xrotation Yrotation Zrotation
		JOINT Hips
		{
			OFFSET -0.000000 -0.000000 -0.000000
			CHANNELS 3 Xrotation Yrotation Zrotation
			JOINT Spine
			{
				OFFSET 0.000000 7.722000 1.166200
				CHANNELS 3 Xrotation Yrotation Zrotation
				JOINT Spine1
				{
					OFFSET 0.000000 12.024101 0.248800
					CHANNELS 3 Xrotation Yrotation Zrotation
					JOINT Spine2
					{
						OFFSET 0.000000 11.502998 -0.491200
						CHANNELS 3 Xrotation Yrotation Zrotation
						JOINT Neck_virtual
						{
							OFFSET 0.000000 0.000000 0.000000
							CHANNELS 3 Xrotation Yrotation Zrotation
							JOINT Neck
							{
								OFFSET 0.000000 18.430702 -3.123100
								CHANNELS 3 Xrotation Yrotation Zrotation
								JOINT Head
								{
									OFFSET 0.000000 9.051102 1.034000
									CHANNELS 3 Xrotation Yrotation Zrotation
									End Site
									{
										OFFSET 0 0 0
									}
								}
							}
						}
						JOINT LeftShoulder_virtual
						{
							OFFSET 0.000000 0.000000 0.000000
							CHANNELS 3 Xrotation Yrotation Zrotation
							JOINT LeftShoulder
							{
								OFFSET 6.197800 13.665199 -4.064700
								CHANNELS 3 Xrotation Yrotation Zrotation
								JOINT LeftArm
								{
									OFFSET 7.778100 -0.187103 -1.709300
									CHANNELS 3 Xrotation Yrotation Zrotation
									JOINT LeftForeArm
									{
										OFFSET 22.049376 0.000000 0.000000
										CHANNELS 3 Xrotation Yrotation Zrotation
										JOINT LeftHand
										{
											OFFSET 23.009392 0.000000 0.000000
											CHANNELS 3 Xrotation Yrotation Zrotation
											End Site
											{
												OFFSET 0 0 0
											}
										}
									}
								}
							}
						}
						JOINT RightShoulder_virtual
						{
							OFFSET 0.000000 0.000000 0.000000
							CHANNELS 3 Xrotation Yrotation Zrotation
							JOINT RightShoulder
							{
								OFFSET -6.197800 13.665199 -4.064700
								CHANNELS 3 Xrotation Yrotation Zrotation
								JOINT RightArm
								{
									OFFSET -7.778100 -0.187103 -1.709300
									CHANNELS 3 Xrotation Yrotation Zrotation
									JOINT RightForeArm
									{
										OFFSET -22.049376 0.000000 0.000000
										CHANNELS 3 Xrotation Yrotation Zrotation
										JOINT RightHand
										{
											OFFSET -23.009392 0.000000 0.000000
											CHANNELS 3 Xrotation Yrotation Zrotation
											End Site
											{
												OFFSET 0 0 0
											}
										}
									}
								}
							}
						}
					}
				}
			}
		}
	}
}
MOTION
Frames: 12
Frame Time: 0.03333333
7.998746 81.527840 10.813459 0.000000 0.000000 0.000000 -1.307951 6.009567 -5.774657 1.910480 10.729560 9.183995 15.744278 -7.046846 -0.335479 -17.676113 2.275369 -1.036500 0.000000 0.000000 0.000000 -1.307951 6.009567 -5.774657 -32.092409 -7.046279 -1.783978 33.886102 0.215474 1.212412 -1.765593 0.490365 7.184048 0.000000 0.000000 0.000000 -1.307951 6.009567 -5.774657 0.000000 0.000000 0.000000 10.005145 -1.332371 3.191546 1.871314 -1.420407 1.481033 0.000000 0.000000 0.000000 -3.085456 -1.618651 0.047467 -2.263181 -2.413852 6.433475 0.000000 0.000000 0.000000 -3.085456 -1.618651 0.047467 1.744051 -3.421884 -0.743977 -7.039691 -12.744836 -76.199981 9.887311 -11.719675 -4.534078 0.000000 0.000000 0.000000 -3.085456 -1.618651 0.047467 2.245581 4.208255 6.197044 0.519969 4.376569 72.028825 11.172629 15.288352 2.172146 0.000000 0.000000 0.000000 
7.969061 81.418945 11.494478 0.000000 0.000000 0.000000 -1.180034 6.088416 -5.857145 2.521991 10.616476 9.299869 15.433687 -6.942229 -0.331907 -18.098379 2.341819 -1.198342 0.000000 0.000000 0.000000 -1.180034 6.088416 -5.857145 -31.314075 -7.193419 -1.459979 29.514111 1.299471 1.216087 -2.490096 0.448892 7.074146 0.000000 0.000000 0.000000 -1.180034 6.088416 -5.857145 0.000000 0.000000 0.000000 10.193854 -1.398735 3.026967 1.658269 -1.547289 1.654123 0.000000 0.000000 0.000000 -3.099210 -1.728067 0.284328 -2.452574 -2.344112 6.184122 0.000000 0.000000 0.000000 -3.099210 -1.728067 0.284328 1.747728 -3.049442 -1.011631 -6.924672 -13.420951 -75.877842 9.745418 -12.188607 -4.775191 0.000000 0.000000 0.000000 -3.099210 -1.728067 0.284328 2.286456 4.046477 5.957244 0.577122 4.140631 72.193501 11.311819 15.036757 2.556840 0.000000 0.000000 0.000000 
7.915369 81.304649 12.198574 0.000000 0.000000 0.000000 -1.036489 6.217686 -5.884490 3.024587 10.436281 9.406022 15.308617 -6.820211 -0.332722 -18.472503 2.382875 -1.381114 0.000000 0.000000 0.000000 -1.036489 6.217686 -5.884490 -30.429575 -7.352192 -1.185961 25.171286 2.332954 1.257297 -3.113511 0.562712 6.467852 0.000000 0.000000 0.000000 -1.036489 6.217686 -5.884490 0.000000 0.000000 0.000000 10.281707 -1.484225 2.893375 1.530882 -1.655979 1.713171 0.000000 0.000000 0.000000 -3.029679 -1.822409 0.405165 -2.777379 -2.362639 6.163047 0.000000 0.000000 0.000000 -3.029679 -1.822409 0.405165 1.734721 -2.975680 -1.007657 -6.950075 -13.745415 -75.686883 9.739466 -12.702262 -4.881105 0.000000 0.000000 0.000000 -3.029679 -1.822409 0.405165 2.341270 3.697851 6.000391 0.577673 4.244789 72.228472 11.271322 14.839604 2.930581 0.000000 0.000000 0.000000 
7.851718 81.183945 12.935769 0.000000 0.000000 0.000000 -0.834553 6.390805 -5.895644 3.365054 10.262823 9.566154 15.370326 -6.871619 -0.398194 -18.825384 2.489132 -1.498061 0.000000 0.000000 0.000000 -0.834553 6.390805 -5.895644 -29.628848 -7.499986 -1.139310 21.103579 2.632549 1.547903 -3.570795 0.951006 5.974708 0.000000 0.000000 0.000000 -0.834553 6.390805 -5.895644 0.000000 0.000000 0.000001 10.405059 -1.577084 2.666664 1.273627 -1.788264 1.884379 0.000000 0.000000 0.000000 -3.086572 -1.937610 0.641754 -2.875665 -2.328186 5.878669 0.000000 0.000000 0.000000 -3.086572 -1.937610 0.641754 1.738334 -2.704593 -1.152259 -6.991228 -14.055440 -75.556400 10.158542 -13.161975 -4.994924 0.000000 0.000000 0.000000 -3.086572 -1.937610 0.641754 2.373055 3.408514 5.817492 0.773665 4.237544 72.357412 11.267701 14.704969 3.217584 0.000000 0.000000 0.000000 
7.761422 81.058441 13.736319 0.000000 0.000000 0.000000 -0.714921 6.564348 -5.831005 3.900989 10.138221 9.687236 15.301710 -6.966703 -0.478105 -19.094905 2.606487 -1.638446 0.000000 0.000000 0.000000 -0.714921 6.564348 -5.831005 -28.900327 -7.642254 -1.027243 17.457578 2.797806 1.561825 -4.154262 1.390515 5.587286 0.000000 0.000000 0.000000 -0.714921 6.564348 -5.831005 0.000000 -0.000001 0.000000 10.742883 -1.666386 2.419966 0.862137 -1.917848 2.026344 0.000000 0.000000 0.000000 -3.297930 -2.045511 0.855363 -2.624585 -2.258871 5.439390 0.000000 0.000000 0.000000 -3.297930 -2.045511 0.855363 1.733736 -2.483402 -1.370492 -6.732599 -14.418222 -75.287877 10.256404 -13.631157 -5.186306 0.000000 0.000000 0.000000 -3.297930 -2.045511 0.855363 2.386606 3.103078 5.622622 1.342288 4.454614 72.514684 10.835912 14.812589 3.464581 0.000000 0.000000 0.000000 
7.657496 80.923805 14.560253 0.000000 0.000000 0.000000 -0.611711 6.755377 -5.706781 4.444147 10.072357 9.771826 15.259788 -7.050521 -0.531105 -19.319666 2.636997 -1.828252 0.000000 0.000000 0.000000 -0.611711 6.755377 -5.706781 -28.310801 -7.806321 -0.790289 14.388736 3.320387 1.197271 -4.994481 1.387275 5.300627 0.000000 0.000000 0.000000 -0.611711 6.755377 -5.706781 0.000000 0.000000 -0.000001 10.986726 -1.787842 2.052382 0.541252 -2.089058 2.272765 0.000000 0.000000 0.000000 -3.414282 -2.193488 1.172487 -2.454627 -2.066946 4.812944 0.000000 0.000000 0.000000 -3.414282 -2.193488 1.172487 1.735613 -2.164656 -1.839520 -6.563240 -14.805567 -74.882875 10.370131 -14.102611 -5.381986 0.000000 0.000000 0.000000 -3.414282 -2.193488 1.172487 2.409351 3.136678 5.163602 1.807141 4.591963 72.825881 10.057045 14.860555 3.733468 0.000000 0.000000 0.000000 
7.547094 80.768570 15.407334 0.000000 0.000000 0.000000 -0.470648 7.005728 -5.580837 4.936976 9.920861 9.859071 15.286091 -7.101017 -0.594659 -19.589532 2.756890 -2.013018 0.000000 0.000000 0.000000 -0.470648 7.005728 -5.580837 -28.191355 -8.022236 -0.637981 12.553067 3.714627 0.835251 -6.142861 1.166863 4.624399 0.000000 0.000000 0.000000 -0.470648 7.005728 -5.580837 0.000000 0.000000 0.000000 11.196271 -1.909897 1.875573 0.235685 -2.232094 2.351253 0.000000 0.000000 0.000000 -3.522573 -2.316608 1.321168 -2.346559 -2.015608 4.576849 0.000000 0.000000 0.000000 -3.522573 -2.316608 1.321168 1.744294 -1.890688 -2.064280 -6.496886 -15.195416 -74.597345 10.432924 -14.507991 -5.620996 0.000000 0.000000 0.000000 -3.522573 -2.316608 1.321168 2.430739 3.001841 5.025310 2.288172 4.957961 72.956775 9.695929 15.072110 3.859018 0.000000 0.000000 0.000000 
7.422670 80.612785 16.316149 0.000000 0.000000 0.000000 -0.268623 7.310836 -5.454395 5.412638 9.707867 9.949096 15.287012 -7.006585 -0.624954 -19.782390 2.798886 -2.291701 0.000000 0.000000 0.000000 -0.268623 7.310836 -5.454395 -28.126379 -8.270782 -0.615753 10.657963 3.867999 0.611150 -6.350292 0.989762 4.278834 0.000000 0.000000 0.000000 -0.268623 7.310836 -5.454395 0.000000 0.000000 0.000000 11.300216 -2.048468 1.665102 -0.044869 -2.406050 2.502044 0.000000 0.000000 0.000000 -3.604039 -2.469168 1.541840 -2.291344 -1.905573 4.122240 0.000000 0.000000 0.000000 -3.604039 -2.469168 1.541840 1.759890 -1.531659 -2.493826 -6.427008 -15.650730 -74.236732 10.070169 -14.840261 -5.963093 0.000000 0.000000 0.000000 -3.604039 -2.469168 1.541840 2.453456 2.987846 4.702278 2.724460 5.275615 73.191050 9.351116 15.318226 3.942418 0.000000 0.000000 0.000000 
7.292629 80.452217 17.242691 0.000000 0.000000 0.000000 -0.145922 7.606928 -5.309252 6.015792 9.604216 10.045444 15.194615 -6.923184 -0.651044 -19.923674 2.793272 -2.606318 0.000000 0.000000 0.000000 -0.145922 7.606928 -5.309252 -28.045981 -8.487635 -0.695425 9.165036 3.845490 0.522305 -6.535750 0.832076 4.147907 0.000000 0.000000 0.000000 -0.145922 7.606928 -5.309252 0.000000 0.000000 0.000000 11.468100 -2.153433 1.655053 -0.267879 -2.505729 2.438228 0.000000 0.000000 0.000000 -3.639368 -2.552968 1.545706 -2.540636 -1.937425 4.132868 0.000000 0.000000 0.000000 -3.639368 -2.552968 1.545706 1.771420 -1.312998 -2.562465 -6.915106 -15.688079 -74.148616 10.629454 -15.033026 -6.181474 0.000000 0.000000 0.000000 -3.639368 -2.552968 1.545706 2.484944 2.727735 4.797701 2.953610 5.669619 73.191419 8.978892 15.443462 4.100312 0.000000 0.000000 0.000000 
7.139359 80.244652 18.186892 0.000000 0.000000 0.000000 -0.061690 7.869457 -5.173778 6.722472 9.503515 10.192830 15.059787 -7.035826 -0.728229 -20.228478 3.011435 -2.877934 0.000000 0.000000 0.000000 -0.061690 7.869457 -5.173778 -28.202384 -8.684144 -0.729174 8.520304 4.038980 0.391287 -6.896819 0.589125 3.849087 0.000000 0.000000 0.000000 -0.061690 7.869457 -5.173778 0.000000 0.000000 0.000000 11.709296 -2.254725 1.415131 -0.493454 -2.664207 2.659171 0.000000 0.000000 0.000000 -3.667249 -2.682969 1.838133 -2.691906 -1.813418 3.605251 0.000000 0.000000 0.000000 -3.667249 -2.682969 1.838133 1.787197 -0.992730 -3.194965 -7.236029 -15.790998 -73.806287 11.051737 -15.314145 -6.357308 0.000000 0.000000 0.000000 -3.667249 -2.682969 1.838133 2.499416 2.747284 4.430862 2.975440 5.660000 73.373539 8.733160 15.548979 4.201204 0.000000 0.000000 0.000000 
6.978977 80.047447 19.201214 0.000000 0.000000 0.000000 -0.042605 8.057014 -5.012653 7.666975 9.453202 10.239925 14.682892 -8.231046 -0.788989 -20.382669 4.290864 -2.729273 0.000000 0.000000 0.000000 -0.042605 8.057014 -5.012653 -28.459281 -8.786725 -0.863742 8.480546 4.094295 0.465157 -6.794153 0.587499 3.423555 0.000000 0.000000 0.000000 -0.042605 8.057014 -5.012653 0.000000 -0.000001 0.000000 12.001054 -2.319297 1.418718 -0.697593 -2.737816 2.600813 0.000000 0.000000 0.000000 -3.688904 -2.736438 1.848267 -3.181364 -1.758249 3.671368 0.000000 0.000000 0.000000 -3.688904 -2.736438 1.848267 1.797103 -0.815835 -3.374227 -7.440941 -15.961829 -73.641037 11.242139 -15.683026 -6.492487 0.000000 0.000000 0.000000 -3.688904 -2.736438 1.848267 2.535504 2.578136 4.509840 2.885991 5.757750 73.375595 8.576641 15.662387 4.279685 0.000000 0.000000 0.000000 
6.788474 79.862427 20.254097 0.000000 0.000000 0.000000 -0.006437 8.198236 -4.885097 8.318617 9.330573 10.408489 14.810481 -8.265757 -0.818483 -20.369692 4.581022 -2.994779 0.000000 0.000000 0.000000 -0.006437 8.198236 -4.885097 -29.148061 -8.854469 -1.040959 9.665140 4.047024 0.625605 -6.626235 0.655929 3.040181 0.000000 0.000000 0.000000 -0.006437 8.198236 -4.885097 0.000000 0.000001 0.000000 12.201812 -2.330828 1.697577 -0.867479 -2.693856 2.244016 0.000000 0.000000 0.000000 -3.694629 -2.691001 1.551722 -3.505650 -2.041720 4.399532 0.000000 0.000000 0.000000 -3.694629 -2.691001 1.551722 1.781930 -0.924625 -2.882378 -7.785202 -15.913349 -73.847882 11.753763 -16.045513 -6.531659 0.000000 0.000000 0.000000 -3.694629 -2.691001 1.551722 2.545893 2.185643 5.357591 2.917513 6.091526 72.906798 8.518536 15.829001 4.340249 0.000000 0.000000 0.000000 
